<?xml version="1.0" encoding="UTF-8"?><svg xmlns="http://www.w3.org/2000/svg" viewBox="0 0 230.18 62.18"><defs><style>.cls-1{fill:#dddde2;}</style></defs><g id="Layer_1"><g><path class="cls-1" d="m31.09,0C13.92,0,0,13.92,0,31.09s13.92,31.09,31.09,31.09,31.09-13.92,31.09-31.09S48.26,0,31.09,0Zm16.87,51.38c-.61.63-1.66.8-2.48.99-2.35.55-4.78.7-7.18.87-2.83.2-5.72.49-8.57.63-1.35.07-2.7.24-4.05.16-1.1-.06-2.62-.24-3.19-1.34-.7-1.35,2.04-2.21,2.88-2.41,2.71-.64,5.58-.73,8.35-.94,2.34-.18,4.68-.33,7.02-.38,1.61-.04,3.23-.05,4.82.26.8.15,3.68.83,2.41,2.15Zm1.82-16.27c-.59,1.63-2.22,2.7-3.55,3.69-1.64,1.22-3.1,3.12-5.24,3.4-.17.02-.34.03-.51.03-1.65,0-3.29-.18-4.95-.1-.81.04-1.64.09-2.42.32-.87.26-1.66.73-2.55.88-.84.15-1.68.02-2.47-.29-.77-.3-1.45-.82-2.29-.91-.89-.1-1.79,0-2.67.15-.78.13-1.52.35-2.19.78-.88.57-1.62,1.04-2.7.95-.74-.06-1.46-.28-2.13-.6-1.7-.83-2.94-2.36-3.52-4.15-.07-.22-.13-.44-.18-.66-1.24-5.33,3.34-13.12,3.34-13.12,0,0,1.39-2.63,1.46-5.05.06-2,.14-4.13.92-6,.23-.56.57-1.05.96-1.5.51-.59,1.12-1.12,1.72-1.62,1.21-1.01,2.6-2,4.15-2.4,3.36-.87,7.95-1.96,10.63,1,1.27,1.4,2,3.12,3.03,4.69.52.79,1.17,1.16,1.91,1.72,1,.74,1.83,1.67,2.5,2.71.45.7,1.05,1.55,1.27,2.37.39,1.48.86,3.2,2.11,4.15,1.2.91,2.02,2.32,2.64,3.68.79,1.73,1.39,4.02.72,5.89Z"/><path class="cls-1" d="m45.17,26.83c-.92-.94-1.62-2.1-1.97-3.38-.4-1.49-1.03-2.95-2.13-4.05,0,0-3.41-3.41-3.41-3.41,0,0-2.31-2.56-3.34-4.66-.59-1.21-1.91-1.53-3.15-1.6-1.7-.09-3.56-.02-5.22.38-1.33.32-2.51,1.03-3.63,1.8-.81.55-1.57,1.09-2.19,1.76-.54.58-.97,1.26-1.21,2.12-.69,2.43-.28,4.99-.78,7.44-.2.99-.79,1.8-1.24,2.69-.53,1.04-.99,2.12-1.43,3.2-.8,1.97-1.43,4.05-1.64,6.18-.11,1.08-.14,2.19.18,3.24.3.99.94,1.8,1.59,2.59.45.55.99,1.06,1.64,1.36.52.23,1.24.36,1.78.13.48-.2.91-.63,1.38-.88,1.01-.53,2.14-.86,3.28-.94.9-.07,1.81-.11,2.7,0,.87.12,1.6.61,2.41.89.95.33,2.03.28,2.9-.25,1.29-.77,3-.79,4.46-.8.84,0,1.67.03,2.51.07.91.05,1.78.19,2.68-.08,1.74-.53,3.21-2.08,4.49-3.31.55-.53,1.09-1.08,1.62-1.64.55-.59.94-1.09.96-1.94.04-1.82-.46-3.87-1.58-5.33-.48-.63-1.13-1.02-1.67-1.57Zm-18.02-2.56c-.04.3-.14.59-.34.82-.2.22-.49.35-.65.59-.29.43-.11,1.06-.07,1.54.02.23-.01.49-.2.65-.23.2-.7.17-.87-.11-.68-1.19-.44-2.66.66-3.48.11-.08.21-.18.24-.31.04-.14-.02-.29-.11-.41-.43-.54-1.21-.37-1.76-.15-.56.21-1.32.51-1.67,1.02-.2.29-.29.65-.32,1.01-.03.4.03.8.04,1.19,0,.3.08.72-.25.89-.16.08-.32,0-.4-.15-.25-.48-.28-1.18-.31-1.71-.02-.35-.01-.72.06-1.07.02-.11.06-.23.1-.33.13-.35.41-.69.67-.97.56-.6,1.32-1.05,2.14-1.17.77-.11,1.69-.15,2.38.28.65.41.75,1.18.66,1.89Zm.02-7.76c-.11.06-.24.07-.36.04-.55-.14-.7-1.3-.06-1.4,0,0,0,0,0,0,.71-.1,1,1.04.41,1.36Zm2.44-.56c-.25,0-.51-.16-.59-.4-.06-.18-.05-.38-.04-.57,0-.05.01-.1.03-.14.04-.1.13-.17.25-.21.37-.15.72.27.79.59.07.31-.05.72-.43.73Zm9.89,7.99c-.14.11-.3.18-.44.29-.75.53-.28,1.55-.72,2.21-.07.1-.17.19-.3.2-.13.01-.25-.06-.34-.14-.54-.52-.66-1.34-.43-2.03.11-.34.32-.68.6-.91.27-.22.63-.38.57-.79-.15-.94-1.26-.8-1.91-.57-.53.19-.85.62-.85,1.19s-.01,1.12.02,1.68c.03.52.17,1.07-.03,1.58-.04.1-.09.19-.17.26s-.19.1-.29.08c-.37-.1-.47-.81-.53-1.12-.11-.54-.11-1.09-.11-1.63,0-.23,0-.46,0-.69,0-.68.18-1.44.63-1.95.78-.88,2.15-.82,3.21-.68.65.08,1.14.62,1.34,1.22.19.55.25,1.42-.25,1.83Z"/></g></g><g id="Layer_2"><path class="cls-1" d="m70.48,17.91c.83-.86,2.37-1.59,2.94-1.83,2.88-1.19,5.85-1.55,8.87-2.17.74-.15,1.7-.27,2.45-.13.45.08.89.33,1.1.74,1.05,2.07-2.35,1.85-3.2,2.48-1.14.85-.74,3.2-.73,4.4.04,6,.48,12.23,1.64,18.13.96,4.91-.96,7.13-2.7,2.02-1.13-3.33-1.19-6.86-1.5-10.32-.2-2.26-.3-4.53-.29-6.8,0-1.17.04-2.35.1-3.52.04-.84.33-1.92-.16-2.69-1.17-1.83-4.89,1.34-6.21,1.72-1.4.4-4.02-.28-2.3-2.04Z"/><path class="cls-1" d="m93.78,27.21c-.31-.43-1.39-.63-1.88-.03-.77.96-.61,2.89-.58,4,.07,2.79-.15,5.58.02,8.36.05.84.03,1.81.43,2.58.37.72,1.35,1.19,2.03.58.26-.24.42-.57.53-.91.54-1.63.17-3.32.15-4.99-.02-1.8-.07-3.61-.06-5.41.01-1.42.24-2.94-.65-4.18Z"/><circle class="cls-1" cx="93.43" cy="19.21" r="1.9"/><path class="cls-1" d="m106.06,10.55c.2,0,.4,0,.6,0,.42,0,.86.1,1.14.41.67.74.42,1.58-.3,2.16-.77.61-1.51.54-2.41.56-1.12.02-1.83.59-2.2,1.64-.9,2.51-.11,5.73.45,8.23.2.91.44,1.81.68,2.71.47,1.76,1.04,3.48,1.63,5.19.5,1.45,1.05,2.89,1.63,4.31.33.81,1.61,2.77.17,3.23-1.37.43-3.25-.43-6.28-8.81s-1.88-15.01-1.88-15.03c.59-3.38,3.74-4.52,6.79-4.6Z"/><path class="cls-1" d="m117.04,8.71c.17-.93.53-1.77,1.56-2.04,2.86-.74,1.99,3.39,1.76,4.87-.94,5.85-.86,6.57.26,5.78.93-.66,1.71-1.73,2.85-2.07.83-.25,1.78.17,2.14.96.51,1.12-.55,1.99-1.34,2.63-2.67,2.17-3.97,2.46-3.11,4.19,1.14,2.28,1.95,4.7,2.91,7.05.49,1.21,1.06,2.36,1.64,3.52.44.89.65,1.95-.36,2.58-1.42.87-3.06-2.6-3.5-3.43-.55-1.03-1.03-2.09-1.5-3.16-.23-.53-.63-2.13-1.28-2.3-.77-.19-.75.98-.79,1.51-.18,2.43-.37,4.86-.54,7.29-.08,1.24-.22,2.5-.23,3.74,0,1.31.31,2.87-.39,4.05-.18.3-.43.57-.76.69-1.1.41-1.77-1.15-1.97-1.97-1.13-4.63.15-9.71.63-14.37.43-4.21.88-8.41,1.34-12.62.18-1.7.31-3.42.5-5.12.06-.54.08-1.18.19-1.78Z"/><path class="cls-1" d="m141.18,17.6c-.5-1.22-1.66-2.22-2.63-3.08-.96-.84-2.2-1.75-3.55-1.62-.88.09-1.64.68-2.14,1.4-.16.23-.31.47-.44.72-1.1,2.01-1.49,4.63-1.65,6.83-.19,2.64,0,5.3.42,7.91.39,2.41.86,4.83,1.64,7.15.61,1.83,1.39,4.42,3.68,4.64,2.14.2,1.49-2.62.93-3.78,0,0-1.93-4-2.65-6.12-.43-1.25.42-1.39,1.44-1.21,1.35.23,2.45.39,3.52-.71,1.48-1.53,1.93-3.67,1.99-5.74.06-2.11.28-4.38-.55-6.38Zm-2.46,4.47c-.1,1.26-.44,5.74-2.58,5.21-.73-.18-1.31-.55-1.64-1.25-.52-1.1-.38-2.27-.32-3.44.06-1.31.11-2.62.13-3.94,0-.46.01-.91.01-1.37,0-.35.04-.75.32-.96.91-.69,2.53.73,3.1,1.38,1.14,1.29,1.1,2.77.98,4.38Z"/><path class="cls-1" d="m149.87,9.44c-.01-.44,0-.87.02-1.31.04-.59.13-1.38.58-1.81.58-.57,1.57-.2,2.01.38.79,1.04.64,2.56.5,3.77-.1.85-.17,1.7-.2,2.55-.03.69-.33,1.7.15,2.29.45.54,1.31.5,1.85.92s.63,1.17.38,1.75c-.37.84-1.54,0-1.92.83-.11.24-.16.51-.2.77-.34,2.15-.68,4.28-.85,6.45-.12,1.51-.22,3.03-.3,4.54-.12,2.19-.3,4.38-.49,6.56-.17,2.04-.21,4.17-.83,6.14-.34,1.09-1.38,1.23-2.2.47-.88-.82-1.16-2.09-1.3-3.29-.38-3.28-.03-6.59.49-9.84.5-3.15,1.12-6.26,1.86-9.36.15-.63.27-1.28.47-1.89.15-.46-.18-.79-.59-.9-.6-.17-1.31-.24-1.93-.28-.85-.06-1.69,0-2.54,0-.95,0-1.99-.03-1.83-1.32.14-1.15,1.51-1.12,2.45-1.2.58-.04,1.17-.02,1.75.03s1.37.07,1.92-.21c.69-.36.79-1.3.84-1.99.1-1.35-.07-2.7-.1-4.04Z"/><path class="cls-1" d="m180.1,28.71c-.15-.07-.31-.09-.45-.2-.91-.66.13-1.69.7-2.17,2.21-1.88,1.97-7.27,1.97-7.27,0,0,.39-11.13-4.24-11.13-2.75,0-4.57,1.85-4.81,4.39-.02.27-.03.54-.02.82.07,1.74.14,3.48.21,5.22.17,4.4.34,8.8.51,13.2.14,3.71.29,7.42.39,11.13.02.82.52,1.41,1.38,1.37.61-.03,1.24-.09,1.85.03.48.09.9.38,1.4.37.98,0,1.76-.8,2.18-1.62.81-1.56,1.02-3.44,1.16-5.16.19-2.51.68-7.69-2.23-9Zm-3.77-5.04c-.12-2.87-.2-5.75-.24-8.62,0-.08,0-.2-.01-.35-.04-1.25-.13-4.47,1.5-3.61,1.28.65,1.35,3.31,1.46,4.5.17,1.9.23,3.89-.01,5.79-.13.99-.6,1.89-1.01,2.79-.17.38-.64,2.26-1.13,2.25-.61-.01-.54-2.37-.55-2.74Zm2.25,17.7c-.38-.02-1.08-.14-1.27-.54-.14-.3-.14-.65-.14-.98,0-2.19-.16-4.37-.3-6.56-.03-.48-.06-.96-.08-1.44-.01-.28-.03-.58.1-.83.21-.41.63-.4.97-.19.51.31,1.27.55,1.51,1.15.09.24.09.5.08.76-.07,2.6.08,5.2.12,7.8.01.7-.34.87-.99.84Z"/><path class="cls-1" d="m197.48,23.04c-.75-2.56-2.46-5.46-5.53-5.14-2.04.21-3.29,2.91-3.83,4.61-.11.35-.21.72-.3,1.09-.54,2.24-.75,4.6-.64,6.9.04.81.05,1.64.38,2.38.32.72.87,1.31,1.15,2.05.51,1.34.49,2.86.49,4.27,0,1.66.63,2.61,1.97,3.57.42.3.85.6,1.36.73,1.73.43,2.53-1.65,3.03-2.89.78-1.94,1.67-3.87,2.09-5.93.76-3.78.94-7.9-.16-11.64Zm-3.57,14.23c-.17.37-.69,1.76-1.21,1.8-.67.05-.96-1.24-1.08-1.7-.29-1.15.05-2.15.16-3.28.1-1.11-.33-2.09-.75-3.1-.6-1.46-.74-3.2-.72-4.77.03-1.63.69-7.4,3.53-4.46.68.71.89,1.69.92,2.63.06,1.52.1,3.03.13,4.55.06,2.95.32,5.57-.98,8.32Z"/><path class="cls-1" d="m212.35,22.66c-.33-1.39-1-3.39-2.47-3.95-1.39-.53-2.96.13-4.16.85-1.78,1.06-2.83,2.96-3.44,4.89-.59,1.87-.81,3.93-.86,5.75-.05,1.79-.45,3.29,1.16,4.45.73.53.79,1.26.86,2.09.12,1.5.78,2.85,1.97,3.79.83.65,2.3,2.01,3.46,1.72,1.32-.33,1.97-2.63,2.43-3.67.63-1.43,1.18-2.61,1.34-4.18.17-1.66.17-3.34.22-5.01.06-2.25.02-4.52-.51-6.72Zm-3.01,11.93c-.13.81-.49,3.43-1.44,3.7-1.95.55-1.79-5.16-2.15-6.09-.67-1.72-1.11-3.65-1.02-5.54,0-.13.01-.28.03-.43.11-1.52.53-3.84,1.92-4.5,1.77-.84,2.67,2.02,2.9,3.23.58,3.15.26,6.5-.23,9.64Z"/><path class="cls-1" d="m225.61,7.13c.08-.81.7-1.93,1.58-2.09,1.11-.2,1.6,1.22,1.77,2.08.31,1.6.13,3.38.14,5.01.02,1.85.04,3.7.06,5.56.01,1.38.02,2.76.01,4.14,0,1.13.18,2.64-.25,3.71-.62,1.55-2.14.89-2.73-.26-.55-1.09-.48-2.45-.45-3.64.07-3.04.03-6.08-.04-9.12-.04-1.55-.13-3.1-.13-4.65,0-.24,0-.49.04-.74Z"/><path class="cls-1" d="m221.42,37.62c.18-1.15.94-2,1.81-2.71s1.91-1.67,2.92-2.05c1.66-.62,2.77,1.42,3.31,2.66.64,1.48.86,3.17.63,4.77-.43,3.03-1.88,4.77-3.54,4.77s-6-1.81-5.13-7.44Z"/></g></svg>